<mxfile host="app.diagrams.net" modified="2021-03-15T22:45:53.056Z" agent="5.0 (Windows NT 10.0; Win64; x64) AppleWebKit/537.36 (KHTML, like Gecko) Chrome/88.0.4324.150 Safari/537.36 Edg/88.0.705.68" etag="CI3zkd5MA-BDyzD7t_5v" version="14.4.8" type="github">
  <diagram name="Page-1" id="c4acf3e9-155e-7222-9cf6-157b1a14988f">
    <mxGraphModel dx="1422" dy="794" grid="1" gridSize="10" guides="1" tooltips="1" connect="1" arrows="1" fold="1" page="1" pageScale="1" pageWidth="850" pageHeight="1100" background="#ffffff" math="0" shadow="0">
      <root>
        <mxCell id="0" />
        <mxCell id="1" parent="0" />
        <mxCell id="z4Qf86gl7oW7xeSHXFPU-59" style="edgeStyle=orthogonalEdgeStyle;rounded=0;orthogonalLoop=1;jettySize=auto;html=1;exitX=0.5;exitY=0;exitDx=0;exitDy=0;entryX=0.479;entryY=1.009;entryDx=0;entryDy=0;entryPerimeter=0;" edge="1" parent="1" source="z4Qf86gl7oW7xeSHXFPU-1" target="z4Qf86gl7oW7xeSHXFPU-48">
          <mxGeometry relative="1" as="geometry" />
        </mxCell>
        <mxCell id="z4Qf86gl7oW7xeSHXFPU-1" value="Staff" style="swimlane;fontStyle=0;childLayout=stackLayout;horizontal=1;startSize=26;fillColor=none;horizontalStack=0;resizeParent=1;resizeParentMax=0;resizeLast=0;collapsible=1;marginBottom=0;" vertex="1" parent="1">
          <mxGeometry x="80" y="270" width="140" height="100" as="geometry" />
        </mxCell>
        <mxCell id="z4Qf86gl7oW7xeSHXFPU-2" value="Employee ID" style="text;strokeColor=none;fillColor=none;align=left;verticalAlign=top;spacingLeft=4;spacingRight=4;overflow=hidden;rotatable=0;points=[[0,0.5],[1,0.5]];portConstraint=eastwest;fontStyle=4" vertex="1" parent="z4Qf86gl7oW7xeSHXFPU-1">
          <mxGeometry y="26" width="140" height="26" as="geometry" />
        </mxCell>
        <mxCell id="z4Qf86gl7oW7xeSHXFPU-3" value="Section: int" style="text;strokeColor=none;fillColor=none;align=left;verticalAlign=top;spacingLeft=4;spacingRight=4;overflow=hidden;rotatable=0;points=[[0,0.5],[1,0.5]];portConstraint=eastwest;" vertex="1" parent="z4Qf86gl7oW7xeSHXFPU-1">
          <mxGeometry y="52" width="140" height="26" as="geometry" />
        </mxCell>
        <mxCell id="z4Qf86gl7oW7xeSHXFPU-4" value="Working Hours: Time" style="text;strokeColor=none;fillColor=none;align=left;verticalAlign=top;spacingLeft=4;spacingRight=4;overflow=hidden;rotatable=0;points=[[0,0.5],[1,0.5]];portConstraint=eastwest;" vertex="1" parent="z4Qf86gl7oW7xeSHXFPU-1">
          <mxGeometry y="78" width="140" height="22" as="geometry" />
        </mxCell>
        <mxCell id="z4Qf86gl7oW7xeSHXFPU-5" value="Place" style="swimlane;fontStyle=0;childLayout=stackLayout;horizontal=1;startSize=26;fillColor=none;horizontalStack=0;resizeParent=1;resizeParentMax=0;resizeLast=0;collapsible=1;marginBottom=0;" vertex="1" parent="1">
          <mxGeometry x="540" y="370" width="150" height="190" as="geometry" />
        </mxCell>
        <mxCell id="z4Qf86gl7oW7xeSHXFPU-6" value="ID : int" style="text;strokeColor=none;fillColor=none;align=left;verticalAlign=top;spacingLeft=4;spacingRight=4;overflow=hidden;rotatable=0;points=[[0,0.5],[1,0.5]];portConstraint=eastwest;fontStyle=4" vertex="1" parent="z4Qf86gl7oW7xeSHXFPU-5">
          <mxGeometry y="26" width="150" height="26" as="geometry" />
        </mxCell>
        <mxCell id="z4Qf86gl7oW7xeSHXFPU-7" value="address: string 20" style="text;strokeColor=none;fillColor=none;align=left;verticalAlign=top;spacingLeft=4;spacingRight=4;overflow=hidden;rotatable=0;points=[[0,0.5],[1,0.5]];portConstraint=eastwest;" vertex="1" parent="z4Qf86gl7oW7xeSHXFPU-5">
          <mxGeometry y="52" width="150" height="26" as="geometry" />
        </mxCell>
        <mxCell id="z4Qf86gl7oW7xeSHXFPU-8" value="# of floor:  int&#xa;&#xa;average lift capacity: float&#xa;&#xa;Opening Hours: float&#xa;" style="text;strokeColor=none;fillColor=none;align=left;verticalAlign=top;spacingLeft=4;spacingRight=4;overflow=hidden;rotatable=0;points=[[0,0.5],[1,0.5]];portConstraint=eastwest;" vertex="1" parent="z4Qf86gl7oW7xeSHXFPU-5">
          <mxGeometry y="78" width="150" height="112" as="geometry" />
        </mxCell>
        <mxCell id="z4Qf86gl7oW7xeSHXFPU-9" value="Disease" style="swimlane;fontStyle=0;childLayout=stackLayout;horizontal=1;startSize=26;fillColor=none;horizontalStack=0;resizeParent=1;resizeParentMax=0;resizeLast=0;collapsible=1;marginBottom=0;" vertex="1" parent="1">
          <mxGeometry x="680" y="30" width="140" height="110" as="geometry" />
        </mxCell>
        <mxCell id="z4Qf86gl7oW7xeSHXFPU-10" value="ID : int" style="text;strokeColor=none;fillColor=none;align=left;verticalAlign=top;spacingLeft=4;spacingRight=4;overflow=hidden;rotatable=0;points=[[0,0.5],[1,0.5]];portConstraint=eastwest;fontStyle=4" vertex="1" parent="z4Qf86gl7oW7xeSHXFPU-9">
          <mxGeometry y="26" width="140" height="26" as="geometry" />
        </mxCell>
        <mxCell id="z4Qf86gl7oW7xeSHXFPU-11" value="name: string 20" style="text;strokeColor=none;fillColor=none;align=left;verticalAlign=top;spacingLeft=4;spacingRight=4;overflow=hidden;rotatable=0;points=[[0,0.5],[1,0.5]];portConstraint=eastwest;" vertex="1" parent="z4Qf86gl7oW7xeSHXFPU-9">
          <mxGeometry y="52" width="140" height="26" as="geometry" />
        </mxCell>
        <mxCell id="z4Qf86gl7oW7xeSHXFPU-12" value="intensity:  float (0-1)" style="text;strokeColor=none;fillColor=none;align=left;verticalAlign=top;spacingLeft=4;spacingRight=4;overflow=hidden;rotatable=0;points=[[0,0.5],[1,0.5]];portConstraint=eastwest;" vertex="1" parent="z4Qf86gl7oW7xeSHXFPU-9">
          <mxGeometry y="78" width="140" height="32" as="geometry" />
        </mxCell>
        <mxCell id="z4Qf86gl7oW7xeSHXFPU-40" style="edgeStyle=orthogonalEdgeStyle;rounded=0;orthogonalLoop=1;jettySize=auto;html=1;exitX=0.5;exitY=0;exitDx=0;exitDy=0;entryX=0.18;entryY=1;entryDx=0;entryDy=0;entryPerimeter=0;" edge="1" parent="1" source="z4Qf86gl7oW7xeSHXFPU-13" target="z4Qf86gl7oW7xeSHXFPU-8">
          <mxGeometry relative="1" as="geometry" />
        </mxCell>
        <mxCell id="z4Qf86gl7oW7xeSHXFPU-13" value="Shopping Mal" style="swimlane;fontStyle=0;childLayout=stackLayout;horizontal=1;startSize=26;fillColor=none;horizontalStack=0;resizeParent=1;resizeParentMax=0;resizeLast=0;collapsible=1;marginBottom=0;" vertex="1" parent="1">
          <mxGeometry x="500" y="680" width="140" height="52" as="geometry" />
        </mxCell>
        <mxCell id="z4Qf86gl7oW7xeSHXFPU-14" value="Crowdedness: float (0-1)" style="text;strokeColor=none;fillColor=none;align=left;verticalAlign=top;spacingLeft=4;spacingRight=4;overflow=hidden;rotatable=0;points=[[0,0.5],[1,0.5]];portConstraint=eastwest;fontStyle=0" vertex="1" parent="z4Qf86gl7oW7xeSHXFPU-13">
          <mxGeometry y="26" width="140" height="26" as="geometry" />
        </mxCell>
        <mxCell id="z4Qf86gl7oW7xeSHXFPU-41" style="edgeStyle=orthogonalEdgeStyle;rounded=0;orthogonalLoop=1;jettySize=auto;html=1;" edge="1" parent="1" source="z4Qf86gl7oW7xeSHXFPU-17" target="z4Qf86gl7oW7xeSHXFPU-8">
          <mxGeometry relative="1" as="geometry" />
        </mxCell>
        <mxCell id="z4Qf86gl7oW7xeSHXFPU-17" value="Hotel" style="swimlane;fontStyle=0;childLayout=stackLayout;horizontal=1;startSize=26;fillColor=none;horizontalStack=0;resizeParent=1;resizeParentMax=0;resizeLast=0;collapsible=1;marginBottom=0;" vertex="1" parent="1">
          <mxGeometry x="340" y="680" width="140" height="90" as="geometry" />
        </mxCell>
        <mxCell id="z4Qf86gl7oW7xeSHXFPU-18" value="Average capacity of room:&#xa;float" style="text;strokeColor=none;fillColor=none;align=left;verticalAlign=top;spacingLeft=4;spacingRight=4;overflow=hidden;rotatable=0;points=[[0,0.5],[1,0.5]];portConstraint=eastwest;fontStyle=4" vertex="1" parent="z4Qf86gl7oW7xeSHXFPU-17">
          <mxGeometry y="26" width="140" height="26" as="geometry" />
        </mxCell>
        <mxCell id="z4Qf86gl7oW7xeSHXFPU-19" value="# of room" style="text;strokeColor=none;fillColor=none;align=left;verticalAlign=top;spacingLeft=4;spacingRight=4;overflow=hidden;rotatable=0;points=[[0,0.5],[1,0.5]];portConstraint=eastwest;" vertex="1" parent="z4Qf86gl7oW7xeSHXFPU-17">
          <mxGeometry y="52" width="140" height="38" as="geometry" />
        </mxCell>
        <mxCell id="z4Qf86gl7oW7xeSHXFPU-42" style="edgeStyle=orthogonalEdgeStyle;rounded=0;orthogonalLoop=1;jettySize=auto;html=1;entryX=0.033;entryY=0.125;entryDx=0;entryDy=0;entryPerimeter=0;" edge="1" parent="1" source="z4Qf86gl7oW7xeSHXFPU-21" target="z4Qf86gl7oW7xeSHXFPU-8">
          <mxGeometry relative="1" as="geometry" />
        </mxCell>
        <mxCell id="z4Qf86gl7oW7xeSHXFPU-21" value="Bar" style="swimlane;fontStyle=0;childLayout=stackLayout;horizontal=1;startSize=26;fillColor=none;horizontalStack=0;resizeParent=1;resizeParentMax=0;resizeLast=0;collapsible=1;marginBottom=0;" vertex="1" parent="1">
          <mxGeometry x="175" y="680" width="140" height="52" as="geometry" />
        </mxCell>
        <mxCell id="z4Qf86gl7oW7xeSHXFPU-22" value="Capacity: int" style="text;strokeColor=none;fillColor=none;align=left;verticalAlign=top;spacingLeft=4;spacingRight=4;overflow=hidden;rotatable=0;points=[[0,0.5],[1,0.5]];portConstraint=eastwest;fontStyle=0" vertex="1" parent="z4Qf86gl7oW7xeSHXFPU-21">
          <mxGeometry y="26" width="140" height="26" as="geometry" />
        </mxCell>
        <mxCell id="z4Qf86gl7oW7xeSHXFPU-39" style="edgeStyle=orthogonalEdgeStyle;rounded=0;orthogonalLoop=1;jettySize=auto;html=1;exitX=0.5;exitY=0;exitDx=0;exitDy=0;entryX=0.367;entryY=1;entryDx=0;entryDy=0;entryPerimeter=0;" edge="1" parent="1" source="z4Qf86gl7oW7xeSHXFPU-29" target="z4Qf86gl7oW7xeSHXFPU-8">
          <mxGeometry relative="1" as="geometry" />
        </mxCell>
        <mxCell id="z4Qf86gl7oW7xeSHXFPU-29" value="Restaurany" style="swimlane;fontStyle=0;childLayout=stackLayout;horizontal=1;startSize=26;fillColor=none;horizontalStack=0;resizeParent=1;resizeParentMax=0;resizeLast=0;collapsible=1;marginBottom=0;" vertex="1" parent="1">
          <mxGeometry x="660" y="680" width="140" height="52" as="geometry" />
        </mxCell>
        <mxCell id="z4Qf86gl7oW7xeSHXFPU-30" value="Capacity: int" style="text;strokeColor=none;fillColor=none;align=left;verticalAlign=top;spacingLeft=4;spacingRight=4;overflow=hidden;rotatable=0;points=[[0,0.5],[1,0.5]];portConstraint=eastwest;fontStyle=0" vertex="1" parent="z4Qf86gl7oW7xeSHXFPU-29">
          <mxGeometry y="26" width="140" height="26" as="geometry" />
        </mxCell>
        <mxCell id="z4Qf86gl7oW7xeSHXFPU-43" style="edgeStyle=orthogonalEdgeStyle;rounded=0;orthogonalLoop=1;jettySize=auto;html=1;exitX=0.5;exitY=0;exitDx=0;exitDy=0;entryX=0.007;entryY=0.885;entryDx=0;entryDy=0;entryPerimeter=0;" edge="1" parent="1" source="z4Qf86gl7oW7xeSHXFPU-35" target="z4Qf86gl7oW7xeSHXFPU-6">
          <mxGeometry relative="1" as="geometry" />
        </mxCell>
        <mxCell id="z4Qf86gl7oW7xeSHXFPU-35" value="Administrative Building" style="swimlane;fontStyle=0;childLayout=stackLayout;horizontal=1;startSize=26;fillColor=none;horizontalStack=0;resizeParent=1;resizeParentMax=0;resizeLast=0;collapsible=1;marginBottom=0;" vertex="1" parent="1">
          <mxGeometry x="20" y="680" width="140" height="90" as="geometry" />
        </mxCell>
        <mxCell id="z4Qf86gl7oW7xeSHXFPU-36" value="Average capacity of room:&#xa;float" style="text;strokeColor=none;fillColor=none;align=left;verticalAlign=top;spacingLeft=4;spacingRight=4;overflow=hidden;rotatable=0;points=[[0,0.5],[1,0.5]];portConstraint=eastwest;fontStyle=4" vertex="1" parent="z4Qf86gl7oW7xeSHXFPU-35">
          <mxGeometry y="26" width="140" height="26" as="geometry" />
        </mxCell>
        <mxCell id="z4Qf86gl7oW7xeSHXFPU-37" value="# of room" style="text;strokeColor=none;fillColor=none;align=left;verticalAlign=top;spacingLeft=4;spacingRight=4;overflow=hidden;rotatable=0;points=[[0,0.5],[1,0.5]];portConstraint=eastwest;" vertex="1" parent="z4Qf86gl7oW7xeSHXFPU-35">
          <mxGeometry y="52" width="140" height="38" as="geometry" />
        </mxCell>
        <mxCell id="z4Qf86gl7oW7xeSHXFPU-45" value="People" style="swimlane;fontStyle=0;childLayout=stackLayout;horizontal=1;startSize=26;fillColor=none;horizontalStack=0;resizeParent=1;resizeParentMax=0;resizeLast=0;collapsible=1;marginBottom=0;" vertex="1" parent="1">
          <mxGeometry x="80" y="40" width="140" height="190" as="geometry" />
        </mxCell>
        <mxCell id="z4Qf86gl7oW7xeSHXFPU-46" value="National ID" style="text;strokeColor=none;fillColor=none;align=left;verticalAlign=top;spacingLeft=4;spacingRight=4;overflow=hidden;rotatable=0;points=[[0,0.5],[1,0.5]];portConstraint=eastwest;fontStyle=4" vertex="1" parent="z4Qf86gl7oW7xeSHXFPU-45">
          <mxGeometry y="26" width="140" height="26" as="geometry" />
        </mxCell>
        <mxCell id="z4Qf86gl7oW7xeSHXFPU-47" value="age : int" style="text;strokeColor=none;fillColor=none;align=left;verticalAlign=top;spacingLeft=4;spacingRight=4;overflow=hidden;rotatable=0;points=[[0,0.5],[1,0.5]];portConstraint=eastwest;" vertex="1" parent="z4Qf86gl7oW7xeSHXFPU-45">
          <mxGeometry y="52" width="140" height="26" as="geometry" />
        </mxCell>
        <mxCell id="z4Qf86gl7oW7xeSHXFPU-48" value="Telephone : string 11&#xa;&#xa;Name : string 20&#xa;&#xa;Address: varchar 50&#xa;&#xa;Email : varchar 20" style="text;strokeColor=none;fillColor=none;align=left;verticalAlign=top;spacingLeft=4;spacingRight=4;overflow=hidden;rotatable=0;points=[[0,0.5],[1,0.5]];portConstraint=eastwest;" vertex="1" parent="z4Qf86gl7oW7xeSHXFPU-45">
          <mxGeometry y="78" width="140" height="112" as="geometry" />
        </mxCell>
        <mxCell id="z4Qf86gl7oW7xeSHXFPU-60" style="edgeStyle=orthogonalEdgeStyle;rounded=0;orthogonalLoop=1;jettySize=auto;html=1;entryX=1.029;entryY=0.688;entryDx=0;entryDy=0;entryPerimeter=0;" edge="1" parent="1" source="z4Qf86gl7oW7xeSHXFPU-49" target="z4Qf86gl7oW7xeSHXFPU-48">
          <mxGeometry relative="1" as="geometry" />
        </mxCell>
        <mxCell id="z4Qf86gl7oW7xeSHXFPU-65" style="edgeStyle=orthogonalEdgeStyle;rounded=0;orthogonalLoop=1;jettySize=auto;html=1;exitX=0.5;exitY=1;exitDx=0;exitDy=0;" edge="1" parent="1" source="z4Qf86gl7oW7xeSHXFPU-49" target="z4Qf86gl7oW7xeSHXFPU-4">
          <mxGeometry relative="1" as="geometry" />
        </mxCell>
        <mxCell id="z4Qf86gl7oW7xeSHXFPU-49" value="Reporter" style="swimlane;fontStyle=0;childLayout=stackLayout;horizontal=1;startSize=26;fillColor=none;horizontalStack=0;resizeParent=1;resizeParentMax=0;resizeLast=0;collapsible=1;marginBottom=0;" vertex="1" parent="1">
          <mxGeometry x="240" y="272" width="140" height="48" as="geometry" />
        </mxCell>
        <mxCell id="z4Qf86gl7oW7xeSHXFPU-62" style="edgeStyle=orthogonalEdgeStyle;rounded=0;orthogonalLoop=1;jettySize=auto;html=1;entryX=1;entryY=0.339;entryDx=0;entryDy=0;entryPerimeter=0;" edge="1" parent="1" source="z4Qf86gl7oW7xeSHXFPU-53" target="z4Qf86gl7oW7xeSHXFPU-48">
          <mxGeometry relative="1" as="geometry" />
        </mxCell>
        <mxCell id="z4Qf86gl7oW7xeSHXFPU-66" style="edgeStyle=orthogonalEdgeStyle;rounded=0;orthogonalLoop=1;jettySize=auto;html=1;exitX=0.5;exitY=1;exitDx=0;exitDy=0;entryX=1;entryY=0.5;entryDx=0;entryDy=0;" edge="1" parent="1" source="z4Qf86gl7oW7xeSHXFPU-53" target="z4Qf86gl7oW7xeSHXFPU-4">
          <mxGeometry relative="1" as="geometry" />
        </mxCell>
        <mxCell id="z4Qf86gl7oW7xeSHXFPU-67" value="Call and Reporting&amp;nbsp;" style="edgeLabel;html=1;align=center;verticalAlign=middle;resizable=0;points=[];" vertex="1" connectable="0" parent="z4Qf86gl7oW7xeSHXFPU-66">
          <mxGeometry x="0.2601" y="2" relative="1" as="geometry">
            <mxPoint as="offset" />
          </mxGeometry>
        </mxCell>
        <mxCell id="z4Qf86gl7oW7xeSHXFPU-68" style="edgeStyle=orthogonalEdgeStyle;rounded=0;orthogonalLoop=1;jettySize=auto;html=1;exitX=0.75;exitY=1;exitDx=0;exitDy=0;entryX=1.027;entryY=0.429;entryDx=0;entryDy=0;entryPerimeter=0;" edge="1" parent="1" source="z4Qf86gl7oW7xeSHXFPU-53" target="z4Qf86gl7oW7xeSHXFPU-8">
          <mxGeometry relative="1" as="geometry" />
        </mxCell>
        <mxCell id="z4Qf86gl7oW7xeSHXFPU-69" value="Visit" style="edgeLabel;html=1;align=center;verticalAlign=middle;resizable=0;points=[];" vertex="1" connectable="0" parent="z4Qf86gl7oW7xeSHXFPU-68">
          <mxGeometry x="-0.032" y="1" relative="1" as="geometry">
            <mxPoint as="offset" />
          </mxGeometry>
        </mxCell>
        <mxCell id="z4Qf86gl7oW7xeSHXFPU-70" style="edgeStyle=orthogonalEdgeStyle;rounded=0;orthogonalLoop=1;jettySize=auto;html=1;exitX=0.75;exitY=0;exitDx=0;exitDy=0;entryX=0.5;entryY=1;entryDx=0;entryDy=0;" edge="1" parent="1" source="z4Qf86gl7oW7xeSHXFPU-53" target="z4Qf86gl7oW7xeSHXFPU-9">
          <mxGeometry relative="1" as="geometry" />
        </mxCell>
        <mxCell id="z4Qf86gl7oW7xeSHXFPU-71" value="Have the diseas" style="edgeLabel;html=1;align=center;verticalAlign=middle;resizable=0;points=[];" vertex="1" connectable="0" parent="z4Qf86gl7oW7xeSHXFPU-70">
          <mxGeometry x="-0.3103" y="-2" relative="1" as="geometry">
            <mxPoint as="offset" />
          </mxGeometry>
        </mxCell>
        <mxCell id="z4Qf86gl7oW7xeSHXFPU-53" value="Paitient" style="swimlane;fontStyle=0;childLayout=stackLayout;horizontal=1;startSize=26;fillColor=none;horizontalStack=0;resizeParent=1;resizeParentMax=0;resizeLast=0;collapsible=1;marginBottom=0;" vertex="1" parent="1">
          <mxGeometry x="630" y="270" width="140" height="50" as="geometry" />
        </mxCell>
        <mxCell id="z4Qf86gl7oW7xeSHXFPU-61" style="edgeStyle=orthogonalEdgeStyle;rounded=0;orthogonalLoop=1;jettySize=auto;html=1;" edge="1" parent="1" source="z4Qf86gl7oW7xeSHXFPU-55" target="z4Qf86gl7oW7xeSHXFPU-48">
          <mxGeometry relative="1" as="geometry" />
        </mxCell>
        <mxCell id="z4Qf86gl7oW7xeSHXFPU-55" value="Practitioner" style="swimlane;fontStyle=0;childLayout=stackLayout;horizontal=1;startSize=26;fillColor=none;horizontalStack=0;resizeParent=1;resizeParentMax=0;resizeLast=0;collapsible=1;marginBottom=0;" vertex="1" parent="1">
          <mxGeometry x="410" y="270" width="140" height="74" as="geometry" />
        </mxCell>
        <mxCell id="z4Qf86gl7oW7xeSHXFPU-56" value="ID" style="text;strokeColor=none;fillColor=none;align=left;verticalAlign=top;spacingLeft=4;spacingRight=4;overflow=hidden;rotatable=0;points=[[0,0.5],[1,0.5]];portConstraint=eastwest;fontStyle=4" vertex="1" parent="z4Qf86gl7oW7xeSHXFPU-55">
          <mxGeometry y="26" width="140" height="22" as="geometry" />
        </mxCell>
        <mxCell id="z4Qf86gl7oW7xeSHXFPU-57" value="Speciality" style="text;strokeColor=none;fillColor=none;align=left;verticalAlign=top;spacingLeft=4;spacingRight=4;overflow=hidden;rotatable=0;points=[[0,0.5],[1,0.5]];portConstraint=eastwest;" vertex="1" parent="z4Qf86gl7oW7xeSHXFPU-55">
          <mxGeometry y="48" width="140" height="26" as="geometry" />
        </mxCell>
        <mxCell id="z4Qf86gl7oW7xeSHXFPU-63" style="edgeStyle=orthogonalEdgeStyle;rounded=0;orthogonalLoop=1;jettySize=auto;html=1;exitX=1;exitY=0.5;exitDx=0;exitDy=0;entryX=0;entryY=0.75;entryDx=0;entryDy=0;" edge="1" parent="1" source="z4Qf86gl7oW7xeSHXFPU-56" target="z4Qf86gl7oW7xeSHXFPU-53">
          <mxGeometry relative="1" as="geometry" />
        </mxCell>
        <mxCell id="z4Qf86gl7oW7xeSHXFPU-64" value="Responsible" style="text;html=1;align=center;verticalAlign=middle;resizable=0;points=[];autosize=1;" vertex="1" parent="1">
          <mxGeometry x="550" y="290" width="80" height="20" as="geometry" />
        </mxCell>
        <mxCell id="z4Qf86gl7oW7xeSHXFPU-72" value="n" style="text;html=1;strokeColor=none;fillColor=none;align=center;verticalAlign=middle;whiteSpace=wrap;rounded=0;" vertex="1" parent="1">
          <mxGeometry x="740" y="250" width="40" height="20" as="geometry" />
        </mxCell>
        <mxCell id="z4Qf86gl7oW7xeSHXFPU-73" value="n" style="text;html=1;strokeColor=none;fillColor=none;align=center;verticalAlign=middle;whiteSpace=wrap;rounded=0;" vertex="1" parent="1">
          <mxGeometry x="760" y="150" width="40" height="20" as="geometry" />
        </mxCell>
        <mxCell id="z4Qf86gl7oW7xeSHXFPU-74" value="n" style="text;html=1;strokeColor=none;fillColor=none;align=center;verticalAlign=middle;whiteSpace=wrap;rounded=0;" vertex="1" parent="1">
          <mxGeometry x="690" y="500" width="40" height="20" as="geometry" />
        </mxCell>
        <mxCell id="z4Qf86gl7oW7xeSHXFPU-75" value="n" style="text;html=1;strokeColor=none;fillColor=none;align=center;verticalAlign=middle;whiteSpace=wrap;rounded=0;" vertex="1" parent="1">
          <mxGeometry x="730" y="324" width="40" height="20" as="geometry" />
        </mxCell>
        <mxCell id="z4Qf86gl7oW7xeSHXFPU-76" value="1" style="text;html=1;strokeColor=none;fillColor=none;align=center;verticalAlign=middle;whiteSpace=wrap;rounded=0;" vertex="1" parent="1">
          <mxGeometry x="540" y="270" width="40" height="20" as="geometry" />
        </mxCell>
        <mxCell id="z4Qf86gl7oW7xeSHXFPU-77" value="n" style="text;html=1;strokeColor=none;fillColor=none;align=center;verticalAlign=middle;whiteSpace=wrap;rounded=0;" vertex="1" parent="1">
          <mxGeometry x="595" y="270" width="40" height="20" as="geometry" />
        </mxCell>
        <mxCell id="z4Qf86gl7oW7xeSHXFPU-78" value="n" style="text;html=1;strokeColor=none;fillColor=none;align=center;verticalAlign=middle;whiteSpace=wrap;rounded=0;" vertex="1" parent="1">
          <mxGeometry x="660" y="320" width="40" height="20" as="geometry" />
        </mxCell>
        <mxCell id="z4Qf86gl7oW7xeSHXFPU-79" value="1" style="text;html=1;strokeColor=none;fillColor=none;align=center;verticalAlign=middle;whiteSpace=wrap;rounded=0;" vertex="1" parent="1">
          <mxGeometry x="280" y="320" width="40" height="20" as="geometry" />
        </mxCell>
        <mxCell id="z4Qf86gl7oW7xeSHXFPU-80" value="1" style="text;html=1;strokeColor=none;fillColor=none;align=center;verticalAlign=middle;whiteSpace=wrap;rounded=0;" vertex="1" parent="1">
          <mxGeometry x="220" y="330" width="40" height="20" as="geometry" />
        </mxCell>
      </root>
    </mxGraphModel>
  </diagram>
</mxfile>
